# xmcd
#
# Track frame offsets:
#	150
#	27234
#	36386
#	56431
#
# Disc length: 948 seconds
#
# Revision: 1
# Processed by: cddbd v1.5PL3 Copyright (c) Steve Scherf et al.
# Submitted via: CDex 1.50Beta5
#
DISCID=2d03b204
DTITLE=To Dream Of Autumn - Kill Your Cul-De-Sac
DYEAR=1900
DGENRE=Rock
TTITLE0=What Birds Plunge Through Is Not The Initimate Space
TTITLE1=Perhaps We Are Going Away
TTITLE2=The Rapture Of The Deep
TTITLE3=My Geodesic And The Humming That Persists
EXTD=
EXTT0=
EXTT1=
EXTT2=
EXTT3=
PLAYORDER=
